<?xml version="1.0" encoding="UTF-8" standalone="no"?>
<!-- Created with Inkscape (http://www.inkscape.org/) -->

<svg
   width="160.79491"
   height="196.52756"
   viewBox="0 0 42.543651 51.997916"
   version="1.1"
   id="svg1"
   xml:space="preserve"
   xmlns="http://www.w3.org/2000/svg"
   xmlns:svg="http://www.w3.org/2000/svg"><defs
     id="defs1"><linearGradient
       id="swatch10"><stop
         style="stop-color:#000000;stop-opacity:1;"
         offset="0"
         id="stop11" /></linearGradient></defs><g
     id="layer1"
     transform="translate(-59.992484,-78.770622)"><g
       id="layer1-4-9"
       transform="matrix(0.06896496,0,0,0.06896496,50.69359,78.24872)"><path
         fill="#000000"
         stroke="#ffffff"
         stroke-width="1.28"
         stroke-linejoin="round"
         stroke-linecap="round"
         d="m 138.65,23.42 c 2.21,-6.7 8.28,-11.95 15.31,-12.89 3.44,-0.38 6.9,0.07 10.33,0.39 -2.68,5.5 -7.46,9.43 -11.65,13.72 -4.42,4.38 -8.58,9.14 -13.88,12.52 -0.92,-4.5 -1.86,-9.31 -0.11,-13.74 z"
         id="path1-4"
         style="stroke-width:5.62605;stroke-dasharray:none" /><path
         fill="#000000"
         stroke="#ffffff"
         stroke-width="1.28"
         stroke-linejoin="round"
         stroke-linecap="round"
         d="m 159.63,23.66 c 2.94,-3.09 5.4,-6.63 8.58,-9.49 4.79,1.9 8.43,5.77 12.32,9.02 -10.45,14.16 -23.51,26.11 -36.33,38.06 -2.41,-5.88 -3.21,-12.24 -4.07,-18.49 6.37,-6.49 13.51,-12.22 19.5,-19.1 z"
         id="path2-1"
         style="stroke-width:5.62605;stroke-dasharray:none" /><path
         fill="#000000"
         stroke="#ffffff"
         stroke-width="1.28"
         stroke-linejoin="round"
         stroke-linecap="round"
         d="m 182.27,24.69 c 5.52,3.64 10.84,7.62 15.73,12.08 -12.83,17.94 -27.21,34.85 -43.54,49.7 -1.7,1.51 -3.51,2.86 -5.33,4.2 -1.8,-8.9 -3.6,-17.8 -5.08,-26.76 8.06,-6.51 15.13,-14.11 22.49,-21.37 5.69,-5.54 10.67,-11.75 15.73,-17.85 z"
         id="path3-3"
         style="stroke-width:5.62605;stroke-dasharray:none" /><path
         fill="#000000"
         stroke="#ffffff"
         stroke-width="1.28"
         stroke-linejoin="round"
         stroke-linecap="round"
         d="m 184.21,58.26 c 5.47,-6.52 10.62,-13.31 15.82,-20.05 6.35,4.61 12.64,9.33 18.56,14.49 -8.34,12.98 -17.76,25.29 -28.28,36.58 -11.34,12.52 -23.52,24.3 -33.71,37.81 -2.38,-7.2 -3.29,-14.75 -4.93,-22.13 -0.72,-3.78 -1.82,-7.64 -1.25,-11.52 0.93,-1.96 2.97,-3.1 4.54,-4.52 11.28,-8.66 20.01,-19.98 29.25,-30.66 z"
         id="path4-7"
         style="stroke-width:5.62605;stroke-dasharray:none" /><path
         fill="#000000"
         stroke="#ffffff"
         stroke-width="1.28"
         stroke-linejoin="round"
         stroke-linecap="round"
         d="m 209.65,69.82 c 3.86,-5.15 7.06,-10.76 11.08,-15.79 16.94,13.13 34.01,26.08 50.92,39.23 3.31,2.71 7.24,4.78 9.94,8.16 0.33,5.25 -1.5,10.34 -2.64,15.4 -4.01,15.74 -13.27,30.13 -26.3,39.9 -21.14,15.54 -41.57,32.07 -63.45,46.58 -5.15,3.6 -11.13,5.91 -17.35,6.76 -3.97,-21.49 -8.14,-42.93 -12.19,-64.4 -0.9,-6.4 -4.62,-13.94 0.41,-19.52 4.68,-6.57 10.28,-12.41 15.87,-18.19 11.82,-12.18 23.32,-24.7 33.71,-38.13 z"
         id="path5-8"
         style="stroke-width:5.62605;stroke-dasharray:none" /><path
         fill="#000000"
         stroke="#ffffff"
         stroke-width="1.28"
         stroke-linejoin="round"
         stroke-linecap="round"
         d="m 283.92,103.16 c 5.94,3.76 11.39,8.22 16.75,12.75 -3.02,17.97 -11.54,35.29 -25.18,47.57 -7.83,7.46 -17.55,12.43 -26.1,18.95 -16.6,12.62 -32.44,26.21 -48.44,39.56 -7.75,5.65 -14.81,12.67 -24.01,15.93 -0.73,-8.57 -3.8,-16.8 -3.86,-25.45 6.41,-1.35 12.58,-3.75 17.99,-7.47 18.57,-11.75 35.59,-25.69 53.15,-38.84 10.57,-7.49 21.03,-15.78 27.92,-26.94 6.57,-10.91 10.89,-23.32 11.78,-36.06 z"
         id="path6-8"
         style="stroke-width:5.62605;stroke-dasharray:none" /><path
         fill="#000000"
         stroke="#ffffff"
         stroke-width="1.28"
         stroke-linejoin="round"
         stroke-linecap="round"
         d="m 302.74,117.19 c 5.41,4.13 10.79,8.32 16.11,12.59 -1.39,11.47 -4.17,23.31 -11.43,32.58 -8.11,10.11 -19.46,16.73 -29.77,24.3 -17.66,11.3 -35.65,22.51 -50.63,37.35 -8.18,7.83 -15.01,17 -23.73,24.27 -6.59,5.31 -13.35,10.44 -20.66,14.72 -2.34,-7.27 -3.54,-14.85 -4.58,-22.41 4.31,-2.04 8.52,-4.33 12.26,-7.31 23.25,-18.07 44.83,-38.31 69.28,-54.81 12.21,-7.26 23.03,-17.07 30.74,-29.06 6.23,-9.78 10.26,-20.86 12.41,-32.22 z"
         id="path7-3"
         style="stroke-width:5.62605;stroke-dasharray:none" /><path
         fill="#000000"
         stroke="#ffffff"
         stroke-width="1.28"
         stroke-linejoin="round"
         stroke-linecap="round"
         d="m 320.79,131.71 c 4.9,3.17 9.6,6.65 14.09,10.38 1.45,1.13 2.71,2.81 2.27,4.76 -1.42,12.62 -5.68,25.37 -14.42,34.85 -12.11,14.19 -30.04,20.89 -46.35,28.85 -11.94,5.67 -22.65,13.62 -32.32,22.57 -6.8,6.27 -11.42,14.47 -18.03,20.92 -6.9,6.76 -13.18,14.3 -21.22,19.77 -5.86,3.82 -11.91,7.77 -18.93,9.04 -1.02,-5.65 -2.26,-11.28 -2.75,-17.02 10.52,-6.4 20.13,-14.2 29.19,-22.5 8.55,-9.12 16.57,-18.85 26.49,-26.57 19.92,-17.3 44.51,-28.19 64.17,-45.83 11.05,-9.93 16.27,-24.76 17.81,-39.22 z"
         id="path8-8"
         style="stroke-width:5.62605;stroke-dasharray:none" /><path
         fill="#000000"
         stroke="#ffffff"
         stroke-width="1.28"
         stroke-linejoin="round"
         stroke-linecap="round"
         d="m 342.14,148.04 c 6.24,4.43 12.72,8.73 18.13,14.16 -0.04,5.72 -2.74,11 -4.7,16.26 -7.98,19.57 -24.08,34.91 -42.6,44.61 -12.24,5.96 -25.39,9.97 -37.28,16.68 -11.57,6.64 -20.48,16.83 -29.07,26.83 -6.3,7.38 -13.47,14.01 -21.32,19.7 -10.59,7.58 -22.94,12.27 -35.57,15.14 -1.17,-4.29 -2.08,-8.64 -2.68,-13.04 5.9,-2.29 11.93,-4.42 17.27,-7.89 9.17,-5.63 16.22,-13.88 23.73,-21.44 6.35,-6.38 11.6,-13.72 17.6,-20.41 12.31,-12.51 27.51,-21.91 43.65,-28.63 14.5,-6.25 28.91,-14.13 38.92,-26.68 8.22,-10 12.14,-22.66 13.92,-35.29 z"
         id="path9-1"
         style="stroke-width:5.62605;stroke-dasharray:none" /><path
         fill="#000000"
         stroke="#ffffff"
         stroke-width="1.28"
         stroke-linejoin="round"
         stroke-linecap="round"
         d="m 363.09,163.96 c 5.66,4.22 11.17,8.64 16.86,12.81 -6.38,12.54 -14.62,23.99 -22.29,35.75 -9.18,14.04 -21.94,25.66 -36.73,33.56 -9.89,5.27 -20.27,9.56 -30.05,15.03 -12.64,7.15 -23.14,17.32 -34.57,26.14 -7.23,5.65 -15.3,10.08 -23.29,14.53 -12.7,6.89 -27.02,9.93 -41.23,11.77 -0.53,-2.98 -1.16,-5.93 -1.63,-8.91 7.24,-2 14.7,-3.55 21.49,-6.88 9.58,-4.58 18.9,-10.09 26.38,-17.72 12.05,-11.96 22.29,-25.96 36.49,-35.57 14.22,-9.88 31.52,-13.74 46.18,-22.82 18.24,-10.82 32.91,-28.06 39.4,-48.36 1.06,-3.09 2.01,-6.21 2.99,-9.33 z"
         id="path10-5"
         style="stroke-width:5.62605;stroke-dasharray:none" /><path
         fill="#000000"
         stroke="#ffffff"
         stroke-width="1.28"
         stroke-linejoin="round"
         stroke-linecap="round"
         d="m 355.62,222.57 c 10.42,-13.49 18.74,-28.43 28.04,-42.67 4.43,3.22 8.75,6.61 13.08,9.96 -6.5,7.19 -12.16,15.08 -18.07,22.75 -8.97,11.37 -16.26,24.15 -26.94,34.1 -8.78,8.8 -18.7,16.46 -29.45,22.72 -14.84,8.5 -29.92,16.58 -44.7,25.2 -11.29,6.69 -22.09,14.35 -34.26,19.41 -15.46,6.58 -32.27,8.78 -48.82,10.67 -0.57,-1.99 -1.09,-3.99 -1.55,-6 14.67,-1.89 29.25,-5.58 42.35,-12.64 10.07,-5.5 19.86,-11.65 28.62,-19.12 9.64,-7.79 19.05,-16 29.9,-22.11 9,-5.8 19.37,-8.9 28.57,-14.32 12.82,-6.96 24.12,-16.58 33.23,-27.95 z"
         id="path11-3"
         style="stroke-width:5.62605;stroke-dasharray:none" /><path
         fill="#000000"
         stroke="#ffffff"
         stroke-width="1.28"
         stroke-linejoin="round"
         stroke-linecap="round"
         d="m 376.51,224.59 c 7.66,-10.86 15.88,-21.31 24.37,-31.54 4.26,3.05 8.46,6.21 12.23,9.86 -9.02,7.68 -17.31,16.27 -24.36,25.79 -9.13,13.31 -18.49,26.64 -30.27,37.78 -10.3,9.64 -21.63,18.31 -34.05,25.04 -9.86,4.82 -19.99,9.13 -29.55,14.53 -19.24,11.59 -39.49,22.39 -61.67,26.99 -12.09,2.61 -24.48,2.69 -36.75,3.84 -0.59,-2.42 -1.2,-4.82 -1.9,-7.2 20.14,-1.15 40.29,-5.45 58.47,-14.37 13.88,-7 26.28,-16.57 40.32,-23.29 13.95,-8.39 28.6,-15.61 42.12,-24.72 6.08,-4.05 11.52,-8.97 16.97,-13.82 9.34,-8.44 16.79,-18.68 24.07,-28.89 z"
         id="path12-5"
         style="stroke-width:5.62605;stroke-dasharray:none" /><path
         fill="#000000"
         stroke="#ffffff"
         stroke-width="1.28"
         stroke-linejoin="round"
         stroke-linecap="round"
         d="m 414.64,205.6 c 1.36,-0.93 2.7,0.24 3.84,0.95 3.81,2.7 7.34,5.76 10.99,8.67 -15.7,7.97 -27.66,21.4 -37.71,35.55 -8.94,12.82 -18.32,25.53 -30.05,35.96 -9.11,7.54 -18.69,14.76 -29.55,19.59 -18.29,8.31 -36.36,17.09 -54.67,25.34 -12.69,5.78 -25.83,11.03 -39.71,12.99 -13.29,1.64 -26.69,2.19 -40.07,1.9 -0.09,-2.28 -0.18,-4.55 -0.25,-6.82 4.49,-0.51 8.97,-1.24 13.5,-1.21 17.21,-0.99 34.27,-4.89 50.11,-11.73 15.22,-6.47 29.05,-15.66 43.84,-22.99 6.5,-3.14 12.99,-6.27 19.44,-9.51 15.74,-8.08 29.57,-19.45 41.77,-32.18 14.17,-14.45 23.24,-33.07 37.82,-47.17 3.45,-3.22 6.51,-7.03 10.7,-9.34 z"
         id="path13-4"
         style="stroke-width:5.62605;stroke-dasharray:none" /><path
         fill="#000000"
         stroke="#ffffff"
         stroke-width="1.28"
         stroke-linejoin="round"
         stroke-linecap="round"
         d="m 421.77,222.66 c 3.19,-2 6.35,-4.54 10.14,-5.16 6.08,3.45 11.42,8.11 16.59,12.79 -5.46,1.43 -11.16,2.43 -16.09,5.34 -6.78,3.88 -12.81,8.96 -18.43,14.36 -8.16,7.77 -13.68,17.7 -19.96,26.93 -6.6,10.13 -15.1,18.96 -24.6,26.4 -11.72,8.76 -24.47,16.3 -38.27,21.27 -12.09,5.07 -24.26,9.96 -36.37,14.99 -12.59,5.73 -25.52,11.13 -39.23,13.49 -18.51,2.87 -37.28,2.57 -55.96,2.51 -0.11,-2.06 -0.27,-4.11 -0.48,-6.14 8.13,-1.38 16.38,-0.58 24.57,-1.15 9.56,-0.93 19.15,-2.08 28.49,-4.43 12.17,-2.99 23.02,-9.49 34.57,-14.14 14.84,-6.31 29.25,-13.57 43.96,-20.15 11.19,-5.58 22.18,-11.91 31.39,-20.46 8.27,-6.71 15.08,-14.96 21.82,-23.14 11.22,-15.52 21.83,-32.25 37.86,-43.31 z"
         id="path14-3"
         style="stroke-width:5.62605;stroke-dasharray:none" /><path
         fill="#000000"
         stroke="#ffffff"
         stroke-width="1.28"
         stroke-linejoin="round"
         stroke-linecap="round"
         d="m 420.07,251.09 c 7.52,-7.09 16.51,-13.44 27.05,-14.62 4.21,-0.3 9.11,-1.16 12.58,1.9 16.5,12.84 33.08,25.59 49.62,38.37 6.45,4.85 10.89,11.72 16.65,17.28 10.4,10.79 22.18,20.64 36.08,26.55 4.61,1.96 9.31,3.88 13.23,7.07 10.52,8.12 21.11,16.15 31.48,24.46 -15.17,4.84 -30.84,8.39 -46.75,9.48 -6.06,0.04 -12.25,0.47 -18.17,-1.13 -6.15,-1.51 -11.87,-4.52 -16.96,-8.25 -7.05,-5.11 -11.77,-12.64 -16.35,-19.9 -9.26,-15.74 -16.52,-32.56 -25.61,-48.4 -5.26,-8.89 -12.34,-17.29 -21.88,-21.71 -8.44,-3.91 -18.24,-0.68 -25.28,4.63 -6.71,5.21 -12.52,11.6 -17.19,18.7 -5.93,8.78 -10.15,18.76 -17.5,26.54 -11.35,12.68 -26.63,21.41 -42.85,26.22 -24.72,8.96 -49.67,17.26 -74.65,25.45 -14.18,3.72 -28.85,6.03 -43.54,5.74 -12.49,0.03 -24.97,-0.1 -37.46,0.09 -0.47,-2.63 -0.99,-5.25 -1.46,-7.88 2.52,-0.11 5.05,-0.18 7.57,-0.38 14.22,-1.66 28.63,-0.29 42.82,-2.33 7.76,-1.36 15.57,-2.72 23.04,-5.29 12.15,-4.54 24,-9.79 35.87,-14.98 15.62,-6.26 31.79,-11.47 46.33,-20.1 16.83,-10.11 32.24,-23.27 42.58,-40.15 5.92,-9.81 12.18,-19.62 20.75,-27.36 z"
         id="path15-6"
         style="stroke-width:5.62605;stroke-dasharray:none" /><path
         fill="#000000"
         stroke="#ffffff"
         stroke-width="1.28"
         stroke-linejoin="round"
         stroke-linecap="round"
         d="m 448.97,262.83 c 7.43,-1.84 14.69,2.37 20.02,7.19 9.92,8.82 15.28,21.21 21.46,32.66 6.25,11.43 11.83,23.22 18.65,34.33 6.53,11.13 16.64,20.68 29.21,24.38 6.62,2.4 13.74,2.18 20.66,2.19 15.72,0.16 30.98,-4.3 45.94,-8.64 2.18,-0.64 4.78,-1.17 6.61,0.6 16.75,13.25 33.96,25.96 50.55,39.42 -8.41,-0.36 -16.25,-6.24 -24.75,-3.67 -4.94,1.07 -8.49,4.93 -11.36,8.82 5.28,8.35 15.83,10.89 25.03,11.91 11.44,0.94 20.2,9.51 27.14,17.91 11.67,14.16 26.04,26.23 42.53,34.41 8.81,4.76 18.49,7.45 27.9,10.71 -1.42,6.34 -5.81,11.94 -11.85,14.46 -4.94,2.13 -10.42,1.98 -15.7,2.05 -13.05,0.03 -26,2.06 -39.06,1.84 -4.5,-0.2 -8.97,1.31 -13.44,0.72 -4.55,-2 -7.36,-6.39 -11.07,-9.51 -12.27,-11.05 -25.55,-21.33 -40.65,-28.21 -20.16,-9.14 -40.51,-18.14 -59.37,-29.8 -13.39,-9.33 -27.01,-18.94 -37.08,-31.98 -5.67,-6.59 -10.8,-13.92 -18.14,-18.8 -19.45,-12.52 -46.4,-12.35 -65.36,1.08 -12.03,8.31 -19.85,21.19 -25.41,34.43 -4.82,11.99 -8.02,24.55 -12.56,36.64 -3.56,9.27 -11.58,17.94 -21.98,18.67 -13.61,0.69 -26.84,-3.44 -40.33,-4.48 -20.9,-3.6 -42.13,-7.55 -63.41,-5.2 -17.28,3.35 -34.45,7.2 -51.64,10.96 -0.73,-3.57 -1.18,-7.18 -1.4,-10.81 15.63,-4.81 31.24,-9.68 47.07,-13.8 7.75,-2.02 15.21,-5.16 23.17,-6.31 15.65,-1.97 31.22,1.36 46.79,2.36 10.72,-0.65 22.27,-3.2 29.97,-11.24 8.57,-7.91 11.5,-19.71 13.65,-30.73 1.78,-8.34 -0.32,-18.35 -7.29,-23.78 -8.04,-5.66 -18.45,-5.79 -27.89,-5 -11.07,0.72 -21.41,5 -31.9,8.24 -16.53,6.04 -33.93,11.05 -51.71,9.72 -7.38,-0.49 -14.51,-2.9 -21.93,-2.97 -11.35,0.09 -22.69,-0.52 -33.99,-1.35 -2.1,-2.55 -2.51,-6.04 -2.61,-9.22 0.84,-1.82 2.96,-1.37 4.59,-1.52 11.32,0.09 22.67,-0.34 33.95,0.73 13.59,-0.91 27.23,-2.44 40.39,-6.06 19.08,-5.23 37.47,-12.61 56.28,-18.72 7.65,-2.65 15.21,-5.55 22.89,-8.1 15.16,-5.22 29.83,-13.12 40.6,-25.23 8.59,-8.32 12.68,-19.83 19.51,-29.42 6.92,-9.47 15.52,-18.93 27.32,-21.88 z"
         id="path16-5"
         style="stroke-width:5.62605;stroke-dasharray:none" /><path
         fill="#000000"
         stroke="#ffffff"
         stroke-width="1.28"
         stroke-linejoin="round"
         stroke-linecap="round"
         d="m 453.77,371.55 c 6.79,-2.62 14.14,-2.41 21.29,-2.27 8.11,-0.15 15.75,3.22 22.83,6.84 13.68,8.1 20.81,23.16 32.77,33.19 13.57,11.8 28.37,22.32 44.46,30.42 15.26,8.07 31.34,14.42 46.7,22.28 9.39,4.91 18.08,11.09 26.08,18.02 5.1,4.61 10.74,8.74 14.83,14.36 -8.6,0.24 -17.15,1.1 -25.75,1.17 -5.96,0.05 -11.91,1.46 -17.86,0.68 -3.34,-1.18 -6.01,-3.63 -8.91,-5.58 -9.29,-6.82 -19.11,-12.89 -29.08,-18.67 -24.28,-12.83 -49.45,-23.83 -74.26,-35.56 -8.95,-3.98 -17.77,-8.28 -26.9,-11.82 -6.36,-2.52 -13.74,-2.9 -20.02,0.07 -6.96,2.92 -12.63,8.63 -15.5,15.61 -7,16.93 -7.51,36.1 -16.79,52.16 -4.51,7.72 -11.36,14.73 -20.19,17.18 -8.18,2.17 -16.8,-0.02 -24.24,-3.61 -8.75,-4.24 -17.4,-8.67 -26.21,-12.8 -10.45,-4.93 -20.51,-10.94 -31.72,-14.04 -10.07,-2.91 -20.24,-5.84 -30.75,-6.57 -15.55,-0.83 -31.21,-0.25 -46.51,2.78 -8.15,1.49 -16.19,3.48 -24.25,5.4 -0.59,-3.44 -1.28,-6.86 -1.67,-10.32 9.93,-3.36 20.36,-4.74 30.57,-6.96 10.96,-2.38 22.03,-4.53 33.26,-5.05 8.61,-0.44 17.1,1.14 25.62,2.11 14.5,1.79 28.82,4.69 43.25,6.95 8.85,1.42 18.04,3.18 26.92,1.02 8.8,-2.87 15.62,-10.31 18.77,-18.89 5.94,-15.73 9.72,-32.36 17.79,-47.23 7.56,-14.09 19.89,-26.23 35.47,-30.87 z"
         id="path17-9"
         style="stroke-width:5.62605;stroke-dasharray:none" /><path
         fill="#000000"
         stroke="#ffffff"
         stroke-width="1.28"
         stroke-linejoin="round"
         stroke-linecap="round"
         d="m 311.31,382.53 c 12.71,-3.86 25.4,-8.28 38.68,-9.76 6.02,-0.68 12.16,0.34 17.9,2.14 7.54,2.64 10.2,11.61 9.32,18.87 -1.33,9.78 -3.45,19.93 -9.47,28 -4.78,6.57 -12.19,11.02 -20.14,12.53 -9.47,2.14 -19.09,-0.2 -28.57,-0.97 -7.22,-1.06 -14.53,-1.18 -21.81,-1.08 -11.47,0.27 -22.21,4.69 -33.18,7.53 -15.15,4.18 -30.05,9.24 -45.3,13.06 -1.72,-7.26 -2.91,-14.63 -4.44,-21.94 4.1,-3.61 10.41,-7.32 9.32,-13.72 -0.92,-6.34 -8.41,-7.12 -13.39,-8.51 -1.42,-7.04 -3.06,-14.05 -3.98,-21.19 6.51,0 13.04,-0.1 19.52,0.67 6.73,0.71 13.53,-0.11 20.26,0.7 6.36,0.69 12.52,2.85 18.97,2.69 15.89,0.51 31.52,-3.53 46.31,-9.02 z"
         id="path18-5"
         style="stroke-width:5.62605;stroke-dasharray:none" /><path
         fill="#000000"
         stroke="#ffffff"
         stroke-width="1.28"
         stroke-linejoin="round"
         stroke-linecap="round"
         d="m 636.8,393.81 c 5.6,-1.27 11.36,0 16.73,1.66 3.84,1.29 7.99,0.98 11.85,2.11 4.81,2.68 8.77,6.59 13.17,9.86 18.71,14.3 37.2,28.87 55.97,43.08 4.16,3.37 8.95,6.28 11.86,10.9 2.03,3.17 2.27,7.01 2.53,10.66 -26.31,-7.06 -50.76,-21.77 -68.1,-42.93 -7.68,-9.23 -17.05,-18.98 -29.79,-19.84 -8.3,-0.23 -16.08,-3.71 -22.72,-8.5 2.2,-2.95 4.79,-6.02 8.5,-7 z"
         id="path19-4"
         style="stroke-width:5.62605;stroke-dasharray:none" /><path
         fill="#000000"
         stroke="#ffffff"
         stroke-width="1.28"
         stroke-linejoin="round"
         stroke-linecap="round"
         d="m 211.27,411.23 c 3.7,1.18 9.1,1.68 10.4,6.07 0.7,5.02 -4.18,8.1 -7.92,10.3 -1.1,-5.41 -2.41,-10.82 -2.48,-16.37 z"
         id="path20-9"
         style="stroke-width:5.62605;stroke-dasharray:none" /><path
         fill="#000000"
         stroke="#ffffff"
         stroke-width="1.28"
         stroke-linejoin="round"
         stroke-linecap="round"
         d="m 453.23,435.27 c 5.04,-5.6 12.92,-8.88 20.44,-7.46 7.35,1.43 14,5 20.8,7.98 19.61,8.72 38.96,17.98 58.36,27.15 11.32,5.71 23.05,10.68 33.81,17.47 8.35,5.34 17.23,10.06 24.56,16.83 -14.44,0.24 -28.85,1.38 -43.28,1.52 -2.67,0.13 -5.05,-1.18 -7.28,-2.45 -14.81,-8.8 -30.65,-16.54 -47.78,-19.42 -14.55,-2.3 -29.6,3.8 -39.55,14.42 -3.97,3.69 -6.59,8.59 -10.63,12.18 -5.4,2.11 -12.12,2.11 -15.95,7.16 -6.15,8.2 -10.09,17.81 -15.68,26.37 -4.55,5.98 -11.88,9.05 -18.92,10.99 -10.91,2.06 -22.39,-0.53 -31.81,-6.28 -14.97,-8.94 -26.46,-22.53 -41.26,-31.7 -15.57,-10.19 -33.43,-17.24 -52.05,-18.82 -10.98,-1.83 -22.01,0.21 -33.01,0.46 -9.13,0.77 -18.14,2.51 -27.18,3.94 -0.88,-3.58 -1.54,-7.21 -1.64,-10.9 16.37,-3.86 33.02,-6.54 49.77,-8 19.01,-0.95 38.13,2.47 55.91,9.2 14.77,6.35 28.89,14.08 43.43,20.93 7.37,3.54 14.81,7.49 23.05,8.52 11.11,1.02 22.08,-4.55 29.16,-12.92 9.8,-11.43 12.85,-26.61 16.54,-40.78 2.43,-9.08 3.82,-19.05 10.19,-26.39 z"
         id="path21-1"
         style="stroke-width:5.62605;stroke-dasharray:none" /><path
         fill="#000000"
         stroke="#ffffff"
         stroke-width="1.28"
         stroke-linejoin="round"
         stroke-linecap="round"
         d="m 498.98,479.96 c 12.27,-1.97 24.69,1.27 35.95,6.01 8.77,3.97 17.54,8.03 25.74,13.11 -17.47,2.19 -35.16,1.44 -52.68,3.12 -5.41,0.45 -10.85,0.09 -16.26,0.64 -8.35,0.97 -16.78,0.56 -25.15,1.28 7.26,-11.62 18.5,-21.82 32.4,-24.16 z"
         id="path22-7"
         style="stroke-width:5.62605;stroke-dasharray:none" /><path
         fill="#000000"
         stroke="#ffffff"
         stroke-width="1.28"
         stroke-linejoin="round"
         stroke-linecap="round"
         d="m 227.32,498.28 c 9.83,-2.4 19.93,-3.32 29.93,-4.66 10.12,-0.33 20.27,-0.55 30.38,-0.09 16.83,2.26 33.57,7.43 47.77,16.94 10.15,6.7 19.56,14.46 28.56,22.61 11.32,9.48 24.61,18.86 40.04,18.55 7.93,0.41 15.33,-2.89 22.26,-6.33 -4.28,8.53 -9.32,16.65 -13.93,25 -1.55,2.46 -2.83,5.44 -5.54,6.84 -8.42,1.13 -17.24,0.65 -25.25,-2.39 -8.52,-3.25 -16.47,-7.95 -23.5,-13.74 -12.33,-10.68 -21.46,-24.56 -34.3,-34.69 -14.22,-11.06 -31.65,-18.31 -49.73,-19.33 -15.07,-1.5 -30.17,0.28 -45.16,1.67 -0.35,-3.49 -0.89,-6.95 -1.53,-10.38 z"
         id="path23-5"
         style="stroke-width:5.62605;stroke-dasharray:none" /><path
         fill="#000000"
         stroke="#ffffff"
         stroke-width="1.28"
         stroke-linejoin="round"
         stroke-linecap="round"
         d="m 230.32,513.78 c 14.49,-1.98 29.11,-2.86 43.72,-2.1 20.9,2.13 41.07,11.45 55.93,26.34 9.01,8.67 16.07,19.26 25.9,27.1 13.74,11.3 31.32,18.53 49.31,17.38 -3.88,7.51 -8.19,14.79 -12.4,22.12 -1.38,2.04 -2.83,4.99 -5.71,4.83 -12.35,0.2 -24.71,-0.03 -37.06,0.08 -12.91,0.21 -25.99,-2.19 -37.67,-7.78 -7.79,-3.88 -11.18,-12.76 -12.34,-20.89 -1.25,-9.4 -2.66,-19.1 -7.49,-27.43 -4.88,-8.68 -13.45,-14.92 -22.84,-17.91 -11.53,-4.28 -24.01,-4.94 -36.18,-5.08 -1.19,-5.53 -2.33,-11.07 -3.17,-16.66 z"
         id="path24-5"
         style="stroke-width:5.62605;stroke-dasharray:none" /><path
         fill="#000000"
         stroke="#ffffff"
         stroke-width="1.28"
         stroke-linejoin="round"
         stroke-linecap="round"
         d="m 234.11,533.35 c 8.65,-0.08 17.45,-0.55 25.9,1.7 10.88,2.28 22.07,6.98 28.67,16.36 6.37,8.67 8.02,19.56 9.54,29.93 1.21,8.68 5.1,17.74 13.14,22.11 10.71,5.29 22.68,8.22 34.66,8.08 14.28,0.03 28.56,-0.05 42.85,0.05 -5.24,8.98 -10.52,17.95 -15.36,27.16 -1.38,2.34 -2.66,5.26 -5.54,6.02 -7.22,2.33 -14.81,3.15 -22.25,4.51 -7.86,0.73 -15.79,0.37 -23.68,0.16 -17.68,-1.99 -34.79,-7.44 -51.17,-14.25 -5.67,-2.66 -11.61,-4.82 -17,-8.04 -2.46,-1.22 -2.69,-4.16 -3.23,-6.52 -5.38,-29.12 -11.3,-58.13 -16.53,-87.27 z"
         id="path25-4"
         style="stroke-width:5.62605;stroke-dasharray:none" /><path
         fill="#000000"
         stroke="#ffffff"
         stroke-width="1.28"
         stroke-linejoin="round"
         stroke-linecap="round"
         d="m 252.63,629.79 c 9.81,4.33 19.23,9.56 29.44,12.95 17.08,5.61 34.8,10.67 52.96,9.92 11.15,0.33 21.95,-2.93 32.88,-4.61 -4.4,8.24 -9.19,16.26 -13.59,24.5 -1.34,2.25 -2.67,5.18 -5.63,5.49 -6.54,0.86 -13.17,0.27 -19.75,0.72 -15.71,1.43 -31.79,1.17 -47.12,-2.91 -6.54,-1.77 -13.2,-3.14 -19.63,-5.31 -2.39,-0.64 -2.52,-3.58 -3.02,-5.56 -1.91,-11.78 -4.67,-23.4 -6.54,-35.19 z"
         id="path26-1"
         style="stroke-width:5.62605;stroke-dasharray:none" /><path
         fill="#000000"
         stroke="#ffffff"
         stroke-width="1.28"
         stroke-linejoin="round"
         stroke-linecap="round"
         d="m 261.24,674.38 c 17.22,4.76 34.75,9.52 52.77,9.3 11.44,0.17 22.83,-1.06 34.25,-1.32 -3.2,6.63 -7.09,12.89 -10.63,19.34 -1.48,2.34 -2.64,5.5 -5.64,6.2 -10.66,3.07 -21.95,5.33 -31.1,11.99 -5.61,3.78 -9.13,10.39 -9.41,17.11 0.25,7.96 4.95,14.7 8.91,21.29 -5.86,0.52 -12.31,1.16 -17.48,-2.25 -5.32,-2.97 -7.97,-8.9 -9.02,-14.65 -4.32,-22.31 -8.58,-44.65 -12.65,-67.01 z"
         id="path27-8"
         style="stroke-width:5.62605;stroke-dasharray:none" /><path
         fill="#000000"
         stroke="#ffffff"
         stroke-width="1.28"
         stroke-linejoin="round"
         stroke-linecap="round"
         d="m 309.89,718.1 c 7.2,-2.97 14.56,-5.68 22.16,-7.45 -6.05,12.66 -13.92,24.35 -20.5,36.74 -1.92,3.9 -4.92,7.13 -8.58,9.47 -4.4,-6.4 -9.45,-13.53 -8.46,-21.73 1.23,-8.15 8.31,-13.78 15.38,-17.03 z"
         id="path28-8"
         style="stroke-width:5.62605;stroke-dasharray:none" /></g></g></svg>
