<svg xmlns="http://www.w3.org/2000/svg" width="243" height="74"><path fill="white" fill-rule="evenodd" d="M243 0v74H0V0zM40.914 38.99q-3.758 0-5.792 1.134t-2.88 3.834-.846 7.704q0 4.932.846 7.596t2.88 3.78 5.778 1.116 5.778-1.116 2.88-3.78.846-7.596q0-5.004-.846-7.704t-2.886-3.834-5.758-1.134m21.6 0q-3.759 0-5.792 1.134t-2.88 3.834q-.846 2.7-.846 7.704 0 4.932.846 7.596t2.88 3.78 5.778 1.116 5.778-1.116 2.88-3.78.846-7.596q0-5.004-.846-7.704t-2.887-3.834-5.758-1.134m-42.314 0q-3.816 0-5.868 1.134t-2.916 3.834-.864 7.668q0 4.932.864 7.596t2.916 3.798 5.868 1.134q3.24 0 5.022-.63t2.61-2.16 1.008-4.338h-4.5q-.288 1.872-1.152 2.538t-2.988.666q-1.98 0-3.06-.774t-1.53-2.61-.45-5.22q0-3.42.45-5.292t1.53-2.646 3.06-.774q1.296 0 2.07.306t1.188 1.044.666 2.07h4.5q-.108-2.88-.9-4.446t-2.556-2.232-4.968-.666m107.537.666q-2.61-.594-7.434-.414l-4.284.144V63.83h4.572V53.822h2.304q2.232 0 3.168.558t1.296 2.142l1.692 7.308h4.932l-2.052-7.632q-.576-2.124-1.314-2.988t-2.25-1.116v-.324q1.656-.252 2.574-.81t1.296-1.656.342-3.042q-.036-2.916-1.134-4.464t-3.708-2.142m104.408-.306h-15.192v24.48h15.912v-3.96h-11.304v-6.768h9.144v-3.96h-9.144V43.31h10.584zm-34.064 0h-4.5l7.272 24.48h5.652l7.272-24.48h-4.5l-5.508 19.08h-.18zm-7.503 0h-12.996v3.996h4.248v16.488h-4.5v3.996h13.5v-3.996h-4.5V43.346h4.248zm-16.224 0h-17.712v4.104h6.552V63.83h4.608V43.454h6.552zm-24.252 0h-6.408l-6.948 24.48h4.5l1.548-5.4h8.28l1.584 5.4h4.536zm-68.45-.108-5.617.108v24.48h4.608v-8.928h2.628q3.888 0 6.012-.702t3.006-2.358.882-4.716q0-3.096-1.026-4.788t-3.492-2.394-7.002-.702m29.895.108H96.355v24.48h15.912v-3.96h-11.304v-6.768h9.144v-3.96h-9.144V43.31h10.584zM62.5 42.95q1.94 0 2.992.771t1.496 2.628.444 5.313q0 3.348-.45 5.166t-1.495 2.592-2.972.774q-1.96 0-3.023-.773t-1.512-2.585q-.448-1.814-.448-5.188 0-3.406.448-5.276.45-1.869 1.512-2.646 1.065-.776 3.008-.776m-21.6 0q1.94 0 2.992.771t1.496 2.628.444 5.313q0 3.348-.45 5.166t-1.495 2.592-2.972.774q-1.959 0-3.022-.773-1.064-.773-1.512-2.585-.45-1.814-.449-5.188 0-3.406.449-5.276.448-1.869 1.512-2.646 1.063-.776 3.007-.776m105.998.576 3.132 10.908h-6.156l2.988-10.908zm-64.635-.288q2.484 0 3.834.342t1.926 1.134.576 2.268q0 1.548-.504 2.376t-1.728 1.188-3.456.36h-2.268v-7.668Zm39.624-.056.648.002q.972.018 2.628.126 1.152.072 1.764.36t.864.9.252 1.692q0 2.016-.594 2.79t-2.214.774h-4.644v-6.588a21 21 0 0 1 1.944-.054ZM106.599 9.99q-3.816 0-5.868 1.134t-2.916 3.834-.864 7.668q0 4.932.864 7.596t2.916 3.798 5.868 1.134q3.24 0 5.022-.63t2.61-2.16 1.008-4.338h-4.5q-.288 1.872-1.152 2.538t-2.988.666q-1.98 0-3.06-.774t-1.53-2.61-.45-5.22q0-3.42.45-5.292t1.53-2.646 3.06-.774q1.296 0 2.07.306t1.188 1.044.666 2.07h4.5q-.108-2.88-.9-4.446t-2.556-2.232-4.968-.666m-65.685 0q-3.758 0-5.792 1.134t-2.88 3.834-.846 7.704q0 4.932.846 7.596t2.88 3.78 5.778 1.116 5.778-1.116 2.88-3.78.846-7.596q0-5.004-.846-7.704t-2.886-3.834-5.758-1.134m17.266.36h-4.608v16.524q0 3.255.828 5.011t2.772 2.513 5.52.756q3.412 0 5.283-.756 1.87-.756 2.66-2.52.793-1.764.793-5.04V10.35H66.82v16.38q0 1.74-.378 2.67-.377.93-1.256 1.326-.878.396-2.506.396-1.755 0-2.714-.396a2.48 2.48 0 0 1-1.372-1.342q-.414-.945-.414-2.69zm-39-.36h-.161q-3.411.014-5.292.594-1.926.594-2.735 1.998-.81 1.403-.81 3.959 0 1.944.684 3.203.684 1.26 2.321 2.178 1.383.774 3.75 1.536.402.13.829.257l.083.025q2.412.72 3.725 1.35t1.89 1.385.576 1.836q0 1.188-.432 1.818t-1.44.882-2.844.216-2.843-.378-1.458-1.134-.558-2.268L10 29.34q.138 1.693.686 2.787.827 1.656 2.861 2.34t5.777.684h.163q3.517-.014 5.434-.612 1.962-.612 2.79-2.088t.828-4.175q0-2.16-.684-3.545-.684-1.386-2.286-2.358-1.47-.893-4.077-1.754l-.476-.154-.154-.048-.232-.074-.226-.072q-1.902-.613-3.06-1.1l-.09-.037q-1.35-.576-1.961-1.152-.612-.576-.612-1.296 0-1.116.396-1.692t1.314-.828 2.645-.252h.127q1.565.01 2.447.27.918.27 1.332.9t.522 1.818l4.475-1.889q-.18-1.404-.696-2.322-.828-1.476-2.718-2.088T19.18 9.99m68.357.666q-2.61-.594-7.434-.414l-4.284.144V34.83h4.572V24.822h2.304q2.232 0 3.168.558t1.296 2.142l1.692 7.308h4.932l-2.052-7.632q-.576-2.124-1.314-2.988t-2.25-1.116v-.324q1.656-.252 2.574-.81t1.296-1.656.342-3.042q-.036-2.916-1.134-4.464t-3.708-2.142m47.61-.306h-15.192v24.48h15.912v-3.96h-11.304v-6.768h9.144v-3.96h-9.144V14.31h10.584zM40.9 13.95q1.94 0 2.992.771t1.496 2.628.444 5.313q0 3.348-.45 5.166t-1.495 2.592-2.972.774q-1.959 0-3.022-.773-1.064-.773-1.512-2.585-.45-1.814-.449-5.188 0-3.406.449-5.276.448-1.869 1.512-2.646 1.063-.776 3.007-.776m40.787.232.648.002q.972.018 2.628.126 1.152.072 1.764.36t.864.9.252 1.692q0 2.016-.594 2.79t-2.214.774h-4.644v-6.588a21 21 0 0 1 1.944-.054Z"/></svg>